<?xml version="1.0" encoding="UTF-8" standalone="no"?>
<svg
   version="1.1"
   id="Layer_1"
   x="0px"
   y="0px"
   width="100%"
   viewBox="0 0 500 500"
   enable-background="new 0 0 500 500"
   xml:space="preserve"
   sodipodi:docname="file.svg"
   inkscape:export-filename="file5.png"
   inkscape:export-xdpi="196.61"
   inkscape:export-ydpi="196.61"
   inkscape:version="1.4.2 (ebf0e940, 2025-05-08)"
   xmlns:inkscape="http://www.inkscape.org/namespaces/inkscape"
   xmlns:sodipodi="http://sodipodi.sourceforge.net/DTD/sodipodi-0.dtd"
   xmlns="http://www.w3.org/2000/svg"
   xmlns:svg="http://www.w3.org/2000/svg"><defs
   id="defs36"><inkscape:path-effect
     effect="fill_between_many"
     method="originald"
     linkedpaths="#path16,0,1|#path13,0,1|"
     id="path-effect38" /></defs><sodipodi:namedview
   id="namedview36"
   pagecolor="#ffffff"
   bordercolor="#000000"
   borderopacity="0.25"
   inkscape:showpageshadow="2"
   inkscape:pageopacity="0.0"
   inkscape:pagecheckerboard="0"
   inkscape:deskcolor="#d1d1d1"
   inkscape:zoom="1.1766257"
   inkscape:cx="210.77221"
   inkscape:cy="237.96863"
   inkscape:window-width="1792"
   inkscape:window-height="1067"
   inkscape:window-x="1920"
   inkscape:window-y="25"
   inkscape:window-maximized="1"
   inkscape:current-layer="Layer_1" />





<path
   fill="#FFC803"
   opacity="1"
   stroke="none"
   d="m 430.14555,236.22761 c -27.3094,18.33355 -54.66824,36.18485 -81.54225,54.73121 -7.52568,5.19363 -14.99047,6.76874 -23.858,6.67296 -33.5876,-0.36268 -67.18166,-0.13491 -101.2389,-0.20241 8.13557,-12.59496 16.98026,-24.95918 25.24528,-37.69552 4.84542,-7.46676 6.00142,-16.23926 6.4093,-24.99159 0.2705,-5.80395 -3.22629,-9.97125 -8.88253,-11.68732 -9.98642,-3.02981 -17.21197,-9.331 -22.11048,-18.53968 -0.98836,-1.85801 -3.22828,-3.68985 -5.25617,-4.26867 -16.93754,-4.83447 -28.2501,-15.94071 -36.89664,-32.02591 2.56326,0 4.29461,0.0198 6.0254,-0.003 36.80734,-0.48322 73.61468,-0.96393 110.42184,-1.46143 17.64117,-0.23846 35.29382,-1.02522 52.91944,-0.62094 17.2457,0.39558 32.82136,6.51053 44.70563,19.08585 8.34213,8.82719 18.11892,13.41472 29.6852,15.35009 1.63916,0.27429 3.22587,0.85882 5.14699,1.9345 0.61526,6.67375 0.92038,12.71275 1.13539,19.14243 -0.11557,1.98639 -0.14108,3.58215 -0.35369,5.53239 -0.33063,1.9229 -0.47411,3.49132 -0.73469,5.45611 -0.0642,0.94049 -0.0113,1.48461 0.0416,2.02875 -0.24287,0.44762 -0.48573,0.89524 -0.86268,1.56209 m -34.85434,-34.96428 c -5.71093,-10.41985 -17.66165,-12.9143 -25.44585,-5.31132 -4.91485,4.80046 -5.58085,12.91166 -1.54719,18.84252 3.8761,5.69926 12.79772,8.32757 18.84248,5.55104 6.8909,-3.16519 10.40021,-10.80639 8.15056,-19.08224 z"
   id="path6"
   style="fill:#fcd34d;fill-opacity:1;stroke-width:1.0067" />
<path
   fill="#ffc806"
   opacity="1"
   stroke="none"
   d="m 54.926643,189.45328 c -4.003437,-11.79996 -8.104408,-23.56911 -11.85881,-35.44777 -0.373779,-1.18262 0.94799,-3.63556 2.181202,-4.48488 36.337879,-25.0263 72.832885,-49.824585 109.155935,-74.872238 31.386,-21.643154 62.59259,-43.546479 94.26391,-64.984744 0.48159,8.988728 0.57773,17.627411 0.67389,26.266093 -16.1248,11.191238 -32.26489,22.360554 -48.37144,33.577995 -41.23715,28.719719 -82.45809,57.462714 -123.690599,86.189114 -2.707168,1.88608 -5.4571,3.71077 -8.55365,6.10059 -1.84935,4.04555 1.087004,15.29187 -0.641435,19.05037 -3.077,5.61398 -10.327601,3.24103 -13.159003,8.60547 z"
   id="path7"
   sodipodi:nodetypes="cscsccssccc"
   style="fill:#fcd34d;fill-opacity:1" />
<path
   fill="#FE3033"
   opacity="1.000000"
   stroke="none"
   d=" M249.609833,36.105343   C249.246613,27.291059 249.150467,18.652376 248.984467,9.558203   C250.897583,9.957118 253.128510,10.472658 254.827179,11.715605   C294.308746,40.605190 333.678131,69.648216 373.189392,98.497002   C393.884674,113.607498 414.770447,128.458786 435.677521,143.275696   C438.570221,145.325760 439.493530,147.210037 438.407898,150.681885   C434.896484,161.911575 431.678741,173.233078 427.924133,185.954834   C422.956512,179.959976 418.966614,174.952164 414.762268,170.131378   C411.308929,166.171707 407.790100,162.491074 410.448730,156.485474   C410.831421,155.621033 409.236115,153.298126 408.008667,152.390793   C388.742584,138.148865 369.344421,124.085686 350.060883,109.867180   C319.519501,87.347855 289.047363,64.734619 258.525238,42.189163   C255.718918,40.116241 252.763214,38.245548 249.609833,36.105343  z"
   id="path8"
   style="fill:#fd2c30;fill-opacity:1" />
<path
   fill="#fec805"
   opacity="1"
   stroke="none"
   d="m 295.42026,424.88984 c 10.79606,-4.08032 21.59213,-8.16061 32.78261,-12.14929 -12.91297,17.42471 -26.10117,34.85018 -39.57463,52.05462 -7.50409,9.58203 -15.48309,18.7962 -23.75114,28.7839 -2.25287,-2.51349 -4.42384,-4.71078 -6.34045,-7.10916 -17.09841,-21.39611 -34.14544,-42.83287 -51.23932,-64.23258 -0.8048,-1.00753 -1.90945,-1.77811 -3.32144,-3.09932 -4.4385,-4.88789 -8.49557,-9.28083 -12.34699,-13.84543 -0.54362,-0.64422 -0.0838,-2.12587 -0.0885,-3.21989 0.42684,-0.0155 0.85371,-0.0309 1.94373,0.19821 5.79723,0.099 10.93127,-0.0466 16.06531,-0.19213 5.79291,-0.68769 10.00894,1.15616 13.48263,6.24562 5.43402,7.96155 11.68036,15.3747 17.89956,23.60139 8.33938,10.63134 16.3618,20.68146 24.52213,30.90439 6.04116,-7.1077 11.8221,-13.56503 17.19785,-20.34026 4.50187,-5.67392 8.53049,-11.71922 12.76866,-17.60007 z"
   id="path9"
   style="stroke-width:1.00507;fill:#fcd34d;fill-opacity:1" />

<path
   fill="#fec806"
   opacity="1"
   stroke="none"
   d="m 112.92463,348.59538 c 3.51575,-5.50064 7.03152,-11.00125 10.81525,-16.75546 4.62678,12.94204 9.19805,26.35014 13.5948,39.94373 -5.48671,4.42205 -12.28621,8.87109 -18.21547,12.8793 -0.6141,-0.25874 0.19419,-0.96373 -0.10443,-0.85609 0,0 -0.0996,-0.19959 -0.13713,-0.3048 -3.16142,-9.29371 -6.28526,-18.48225 -9.3048,-28.40381 1.18681,-2.65633 2.2693,-4.57958 3.35178,-6.50287 z"
   id="path11"
   style="stroke-width:1.0185"
   sodipodi:nodetypes="cccccccc" />
<path
   id="path12"
   style="fill:#fd2c30;fill-opacity:1"
   sodipodi:type="inkscape:offset"
   inkscape:radius="0"
   inkscape:original="M 68.640625 162.12891 C 66.877273 165.84272 65.39495 169.35237 63.912109 172.86133 C 68.424568 178.52649 69.164375 186.67882 65.392578 191.78516 C 69.164375 186.67882 68.424073 178.52695 63.666016 173.11133 C 60.589016 178.72531 57.757717 184.08814 54.927734 189.80078 C 64.559418 219.30284 74.188935 248.45784 83.820312 277.61133 C 92.395812 303.56875 100.97282 329.52616 109.71875 355.13477 C 110.96211 352.91794 112.03638 351.04856 112.87109 348.87695 C 116.59914 343.83621 120.08875 338.49206 123.80273 332.51758 C 122.43056 326.13623 121.02827 320.32202 119.20312 314.64453 C 106.19597 274.18292 93.162156 233.73044 79.996094 193.32031 C 76.559304 182.77189 72.626259 172.38506 68.640625 162.12891 z "
   d="m 68.640625,162.12891 c -1.763352,3.71381 -3.245675,7.22346 -4.728516,10.73242 4.512459,5.66516 5.252266,13.81749 1.480469,18.92383 3.771797,-5.10634 3.031495,-13.25821 -1.726562,-18.67383 -3.077,5.61398 -5.908299,10.97681 -8.738282,16.68945 9.631684,29.50206 19.261201,58.65706 28.892578,87.81055 8.5755,25.95742 17.152508,51.91483 25.898438,77.52344 1.24336,-2.21683 2.31763,-4.08621 3.15234,-6.25782 3.72805,-5.04074 7.21766,-10.38489 10.93164,-16.35937 -1.37217,-6.38135 -2.77446,-12.19556 -4.59961,-17.87305 -13.00715,-40.46161 -26.040964,-80.91409 -39.207026,-121.32422 -3.43679,-10.54842 -7.369835,-20.93525 -11.355469,-31.1914 z" />
<path
   inkscape:original-d="M 0,0"
   inkscape:path-effect="#path-effect38"
   d="M 0,0"
   id="path38" />



<path
   fill="#fc9d46"
   opacity="1"
   stroke="none"
   d="m 191.33124,402.08788 c 0.46974,1.18983 0.003,2.67688 0.55485,3.32344 3.90864,4.58121 8.02598,8.99014 12.20021,13.74865 -3.37473,0.45033 -6.87287,0.60597 -10.83522,0.73179 -4.44193,-5.70047 -8.41965,-11.3711 -12.99642,-17.8957 3.863,0 7.2373,0 11.07658,0.0918 z"
   id="path17"
   style="stroke-width:1.01435;fill:#fdba74;fill-opacity:1" />








<path
   fill="#25242e"
   opacity="1"
   stroke="none"
   d="m 295.76161,424.79504 c -3.76093,5.90881 -8.82063,12.15256 -13.28755,17.81333 -5.33402,6.75952 -11.07007,13.20187 -17.06433,20.29309 -8.09699,-10.19922 -16.05712,-20.22605 -24.11099,-30.56888 15.84683,-0.86569 31.6571,-2.32394 47.07733,-6.7504 1.8649,-0.53537 4.97709,-0.63901 7.38554,-0.78714 z"
   id="path26"
   sodipodi:nodetypes="csccsc"
   style="fill:#1f2937;fill-opacity:1" />
<path
   fill="#FCE1E1"
   opacity="1.000000"
   stroke="none"
   d=" M332.928833,317.910095   C313.786682,341.176117 288.834259,355.140076 261.301910,364.697296   C244.863907,370.403442 227.895523,374.584290 211.149765,379.395874   C210.002090,379.725586 208.722092,379.594818 207.503647,379.678223   C207.403000,379.251190 207.302338,378.824127 207.201691,378.397095   C209.722427,377.672302 212.219162,376.847198 214.767548,376.238037   C243.815079,369.294647 271.901459,359.759857 297.851440,344.727234   C311.688843,336.711334 323.063477,325.769196 333.026672,313.327271   C334.214203,311.844238 335.420868,310.376495 337.274292,309.308167   C338.263580,313.289551 334.758850,315.004364 332.928833,317.910095  z"
   id="path27"
   style="fill:#ffffff;fill-opacity:1" />




<path
   fill="#FB393B"
   opacity="1.000000"
   stroke="none"
   d=" M114.010796,390.008240   C113.907700,390.329712 113.719864,390.590027 113.229553,390.899048   C113.011833,391.008972 113.000000,391.000000 112.995255,390.993896   C113.092896,390.665649 113.280640,390.405029 113.776871,390.102966   C114.000000,390.000000 114.010796,390.008240 114.010796,390.008240  z"
   id="path32" />
<path
   id="path33"
   style="fill:#fd2c30;fill-opacity:1;stroke-width:2.73433"
   d="m 113.99576,389.99451 c 0.73287,-0.32639 2.13022,-0.58646 5.7859,-0.89508 1.62557,-0.10932 1.72112,-0.0994 1.75865,-0.093 -0.74422,0.32617 -2.1499,0.58533 -5.80581,0.89288 -1.62631,0.10892 -1.70703,0.10068 -1.73874,0.0952 z m 0.99129,-1.0044 c 0.63532,-0.50567 1.27065,-1.01138 1.90596,-1.51706 0.43159,0.18082 0.86318,0.36164 1.29479,0.54248 -0.66114,0.30762 -1.32225,0.61521 -2.57886,0.95365 -0.59547,0.0308 -0.62189,0.0209 -0.62189,0.0209 z m 3.12412,-2.6548 c -5.53651,5.49153 -11.07302,10.98306 -16.60954,16.47453 -0.91913,-1.08318 -1.838255,-2.16639 -2.75739,-3.24961 6.07286,-4.37974 12.14571,-8.75949 18.78331,-13.18924 0.56474,-0.05 0.58361,-0.0358 0.58362,-0.0358 z m -16.34316,13.22249 c -1.07747,1.13043 -11.898044,8.19668 -14.52142,9.40198 1.037529,-1.16738 11.938002,-8.15974 14.52142,-9.40198 z m -32.798727,-9.08357 c -3.607418,0.26001 -10.211266,-4.68334 -13.537181,-6.86449 3.644978,-0.29614 9.111354,6.8442 13.537181,6.86449 z m 3.733181,36.35666 c 0.785285,-2e-5 1.62818,-2.56937 2.4239,-2.49939 9.462943,0.83248 17.847761,-1.07893 26.767936,-3.42549 -4.326703,4.15741 -9.521397,6.41383 -16.136315,5.96889 -4.155728,-0.27957 -18.175859,-0.0439 -13.480465,-0.044 z m 4.596952,-12.07029 c -0.36935,1.11916 -2.455878,3.67009 -2.956097,5.00001 -0.83274,2.21404 -1.397664,4.53062 -1.930559,7.15183 -4.086407,0.76425 -8.317631,1.18072 -12.548855,1.59714 -0.176417,-0.40765 -0.352828,-0.81534 -0.529245,-1.223 5.478433,-3.67408 12.12546,-8.72924 17.964756,-12.52598 z M 44.719028,383.59821 c 1.875526,1.89753 3.244628,3.65628 5.24937,6.23151 -3.897557,1.59376 -8.394498,3.43259 -13.275266,5.44203 -4.776998,-3.40319 -9.170174,-6.97701 -13.563346,-10.55081 l 0.255651,-1.26153 c 6.942389,0 13.884779,0 21.333591,0.1388 z m 47.654639,-0.23023 c -1.29524,5.65778 -6.781289,3.61176 -10.655964,4.52643 -7.038027,1.66153 -14.456302,2.12564 -21.294443,4.25146 -3.353537,1.04255 -5.762413,4.68973 -8.954034,7.53348 -1.220051,0.89197 -2.08489,1.4086 -2.94972,1.92526 -7.300529,2.25541 -9.316095,-4.30374 -13.435501,-7.46038 4.583396,-2.09012 8.960924,-3.7305 12.754984,-5.15226 -1.951506,-2.2973 -3.284254,-3.86624 -4.616997,-5.43515 4.009398,-0.11245 8.018796,-0.22491 12.885207,-0.036 5.76718,-0.0671 9.614994,-0.0106 13.993984,-0.16659 7.259395,-0.0311 14.518791,-0.0622 22.272484,0.0138 z m 3.344861,0.044 c 2.421843,1.54321 4.292852,3.19021 6.443162,4.34149 1.92631,1.0314 4.16019,1.51694 7.887,2.8071 -3.72106,2.74322 -6.06965,4.46676 -8.40872,6.20251 -1.13231,0.84021 -2.246727,1.7034 -3.890158,2.92121 -15.931207,0.36468 -31.341501,0.36432 -46.746905,-0.008 2.698758,-2.84055 4.986584,-6.48773 8.171601,-7.53028 6.494516,-2.12582 13.540011,-2.58993 20.224367,-4.25146 3.679968,-0.91467 8.890336,1.13135 10.589946,-4.41931 1.76681,-0.0584 3.533628,-0.11667 5.729707,-0.0631 z m -0.707877,0.11194 c 7.682919,-0.11963 15.365839,-0.23923 23.546879,-0.34427 0.49811,0.0145 0.38443,0.84588 0.50091,1.00424 0.3385,0.32321 0.80023,-0.23694 1.366,-0.40762 5.77132,-4.06971 11.25337,-7.9791 16.73541,-11.88855 8.48312,-6.64463 17.29428,-12.91507 25.38492,-20.00745 20.34346,-17.83334 40.36063,-36.03891 60.51732,-54.08548 0.36313,-0.32513 0.83461,-0.52924 2.05171,-0.80307 34.07495,-0.0202 67.35614,-0.24704 100.63092,0.1142 8.78494,0.0954 16.18021,-1.47342 23.6358,-6.6463 26.62372,-18.47226 53.72776,-36.25225 80.65003,-54.29418 -2.70569,15.38822 -5.23285,30.81044 -8.15494,46.15746 -5.75687,30.23571 -17.20126,57.95288 -36.77832,82.04327 -13.78604,16.9643 -29.80273,31.32553 -48.53525,42.63672 -2.41339,1.45727 -4.68249,3.15347 -7.53958,4.99799 -0.68921,0.52697 -0.85724,0.79498 -1.02527,1.06298 3e-5,0 0.005,-0.0642 -0.35614,-0.14578 -11.07297,3.98929 -21.78521,8.06012 -32.9418,12.08939 -2.40845,0.14813 -4.45828,0.0393 -6.32318,0.57467 -15.42023,4.42646 -29.63696,8.32814 -45.79831,8.61397 -6.07716,-7.89161 -13.86855,-17.731 -19.26038,-25.67409 -3.44673,-5.07766 -7.63002,-6.91723 -13.82937,-6.32425 -5.47184,-0.0332 -10.49222,0.0267 -15.8299,0.0637 -0.74083,-0.008 -1.16438,0.008 -2.04256,-0.068 -3.75372,-0.0913 -7.05281,-0.0913 -10.82971,-0.0913 4.47476,6.48586 8.36382,12.12283 12.25287,17.75976 -17.75189,0.0721 -35.50418,0.20721 -53.25482,0.0892 -1.33234,-0.009 -3.08666,-1.55447 -3.89731,-2.85254 -2.44221,-3.91055 -4.51503,-8.05178 -7.05772,-12.69848 -3.56098,2.3699 -6.7958,4.52276 -10.54651,6.48547 -4.7707,2.84802 -9.02551,5.8862 -13.28031,8.92435 -0.74182,0.44784 -3.92708,2.59547 -5.206488,2.78273 -8.420827,2.44232 -14.494812,3.27503 -23.06237,2.41319 -0.720429,-0.0725 -1.364371,0.46338 -2.157592,1.11478 -0.739922,0.0992 -1.692315,0.94204 -2.939019,0.62945 0.144684,-2.57712 0.687736,-4.78354 1.488235,-6.8923 0.480851,-1.2667 1.363243,-2.38092 2.065186,-3.56369 3.469032,-2.41672 7.57548,-4.7272 11.733424,-7.23419 1.475182,-0.7713 2.261452,-1.45236 3.047699,-2.13345 0.989212,-0.67612 1.978424,-1.35224 3.664528,-2.03931 2.195084,-1.02573 3.693291,-2.04047 5.191498,-3.05521 -0.608315,-0.59833 -1.216629,-1.19662 -1.785988,-2.15384 1.133186,-1.2117 2.219528,-2.07489 3.323317,-2.9151 2.28015,-1.73575 4.56959,-3.45929 8.19692,-6.20251 -3.63294,-1.29016 -5.81055,-1.7757 -7.68834,-2.8071 -2.096141,-1.15128 -3.920024,-2.79828 -5.862399,-4.22955 m 18.543089,6.68194 c -0.2731,0.19913 -0.46084,0.45975 -1.26191,0.85672 l -11.42287,8.22556 c 0.57628,0.67813 1.15257,1.35626 1.72886,2.03436 3.47134,-3.43784 6.94268,-6.8757 10.84945,-10.53339 0.27259,-0.19912 0.46043,-0.45944 0.99858,-0.99874 0.27145,-0.19864 0.45946,-0.4578 1.13001,-0.85209 0.31976,-0.30758 0.63952,-0.61517 0.95929,-0.92279 -0.20875,-0.18084 -0.4175,-0.36166 -0.62624,-0.54248 -0.30729,0.50568 -0.61458,1.01139 -1.3567,1.73572 -0.27153,0.19928 -0.45843,0.45935 -0.99847,0.99713 m 219.58548,-72.58276 c 1.61963,-2.61878 5.12436,-4.33359 4.13507,-8.31497 -1.85342,1.06832 -3.06009,2.53607 -4.24762,4.0191 -9.96319,12.44193 -21.33783,23.38406 -35.17523,31.39996 -25.94998,15.03263 -54.03636,24.56742 -83.08389,31.51081 -2.54839,0.60916 -5.04512,1.43426 -7.56586,2.15905 0.10065,0.42704 0.20131,0.8541 0.30196,1.28113 1.21844,-0.0834 2.49844,0.0474 3.64611,-0.28235 16.74576,-4.81158 33.71415,-8.99243 50.15215,-14.69857 27.53235,-9.55722 52.48477,-23.52118 71.83731,-47.07416 m -214.54929,67.8967 c 0,0 -0.11031,0.066 0,0 z m -72.731978,15.59367 c 0.362493,-0.88215 1.213797,-1.60555 2.40969,-2.33338 16.316275,-0.003 32.287967,-0.003 48.758137,-0.0116 1.145244,0.8292 1.792012,1.66695 2.438778,2.50474 -1.592911,1.42087 -3.185821,2.84173 -5.20375,4.18544 0.43678,-1.10996 1.298571,-2.14278 3.003884,-4.18654 -17.65801,0 -34.287977,0 -51.406739,-0.15866 z"
   sodipodi:nodetypes="cccccsccccsscccssccccccsccssscsccccccccccscscccccccsscscsccssccccccccsscsscssscsccccsccccccsccccsccsccccccscscccccccccccccccsscccccccccccccc" />

<path
   fill="#23232c"
   opacity="1"
   stroke="none"
   d="m 396.08535,201.66861 c 2.17502,8.17813 -1.44467,16.07317 -8.55232,19.3435 -6.23489,2.86877 -15.43714,0.15315 -19.43515,-5.73544 -4.16053,-6.12788 -3.47359,-14.50854 1.59585,-19.46846 8.02904,-7.85555 20.35567,-5.27824 26.39162,5.8604 z"
   id="path35"
   style="stroke-width:1.03925;fill:#1f2937;fill-opacity:1"
   sodipodi:nodetypes="csssc" />
<path
   id="path36"
   style="stroke-width:3.45629;fill:#ea580c;fill-opacity:1"
   d="m 435.96087,226.93631 c 1.18299,1.25485 0.15092,2.86276 -4.09477,4.75511 -1.5162,-1.27774 0.18193,-2.83989 4.09477,-4.75511 z m -1.32709,-23.91403 c 9.08582,7.3243 8.41796,13.73003 12.75033,20.963 -4.54727,1.93482 -9.0732,3.86054 -14.37633,6.11696 -2.33173,4.66139 -2.45582,4.24959 -1.57827,-8.73013 -0.44349,-6.30615 -0.87935,-12.68642 -1.22539,-19.15675 1.36603,-0.18575 2.74852,0.40903 4.42966,0.80692 z m -3.32435,25.42009 c 0.0254,-1.58937 0.10382,-5.09101 0.47764,-6.7741 0.61542,2.58139 1.20108,5.30962 1.49166,8.2215 4.20616,-2.23904 7.79588,-4.14993 11.40252,-6.06984 -3.4362,-7.17725 -6.65609,-13.9026 -9.87594,-20.62796 15.29158,5.42679 31.08443,9.68576 45.70122,18.68413 -16.9909,4.29449 -33.70046,8.75486 -50.05555,12.86522 0,0 -0.0163,-0.0529 0.31776,-2.33641 0.36719,-2.60584 0.45396,-2.35462 0.54069,-3.96254 z" />
</svg>
